<?xml version="1.0" encoding="UTF-8"?>
<svg xmlns="http://www.w3.org/2000/svg" xmlns:xlink="http://www.w3.org/1999/xlink" width="38px" height="38px" viewBox="0 0 38 38" version="1.1">
<g id="surface1">
<path style=" stroke:none;fill-rule:nonzero;fill:rgb(0%,0%,0%);fill-opacity:1;" d="M 0.0742188 13.804688 C 0.0742188 9.203125 0.0742188 4.640625 0.0742188 0.0742188 C 12.742188 0.0742188 25.40625 0.0742188 38.074219 0.0742188 C 38.074219 12.742188 38.074219 25.40625 38.074219 38.074219 C 25.40625 38.074219 12.742188 38.074219 0.0742188 38.074219 C 0.0742188 29.996094 0.0742188 21.917969 0.0742188 13.804688 M 22.261719 36.808594 C 24.464844 36.808594 26.664062 36.816406 28.867188 36.8125 C 30.75 36.808594 32.0625 35.5 32.0625 33.617188 C 32.0625 25.636719 32.0625 17.660156 32.0625 9.679688 C 32.0625 9.574219 32.050781 9.46875 32.042969 9.347656 C 30.644531 9.347656 29.273438 9.363281 27.902344 9.34375 C 26.300781 9.320312 24.859375 8.308594 24.324219 6.800781 C 24.152344 6.3125 24.074219 5.765625 24.058594 5.246094 C 24.023438 3.953125 24.046875 2.65625 24.046875 1.335938 C 23.929688 1.335938 23.847656 1.335938 23.761719 1.335938 C 18.925781 1.335938 14.089844 1.332031 9.253906 1.335938 C 7.402344 1.339844 6.089844 2.660156 6.085938 4.523438 C 6.082031 5.601562 6.078125 6.675781 6.089844 7.753906 C 6.09375 8.089844 6.007812 8.332031 5.648438 8.402344 C 5.648438 8.570312 5.648438 8.71875 5.648438 8.863281 C 5.683594 8.847656 5.71875 8.832031 5.753906 8.816406 C 5.863281 9.019531 6.054688 9.214844 6.070312 9.421875 C 6.09375 9.824219 6.265625 10.332031 5.652344 10.480469 C 5.652344 10.652344 5.652344 10.796875 5.652344 10.953125 C 5.996094 11.027344 6.089844 11.253906 6.089844 11.578125 C 6.085938 13.976562 6.09375 16.375 6.085938 18.84375 C 6.085938 23.730469 6.085938 28.617188 6.085938 33.503906 C 6.085938 35.535156 7.359375 36.8125 9.390625 36.8125 C 13.535156 36.8125 17.679688 36.8125 21.824219 36.8125 C 21.945312 36.8125 22.070312 36.804688 22.261719 36.808594 M 25.898438 7.613281 C 26.339844 8.03125 26.851562 8.316406 27.460938 8.398438 C 27.785156 8.441406 28.121094 8.457031 28.453125 8.457031 C 29.433594 8.464844 30.417969 8.460938 31.296875 8.460938 C 29.183594 6.351562 27.042969 4.207031 24.9375 2.105469 C 24.9375 3.113281 24.941406 4.210938 24.9375 5.3125 C 24.929688 6.195312 25.234375 6.949219 25.898438 7.613281 Z M 25.898438 7.613281 "/>
<path style=" stroke:none;fill-rule:nonzero;fill:rgb(96.470588%,95.686275%,98.039216%);fill-opacity:1;" d="M 6.101562 18.777344 C 6.09375 16.375 6.085938 13.976562 6.089844 11.578125 C 6.089844 11.253906 5.996094 11.027344 5.652344 10.953125 C 5.652344 10.796875 5.652344 10.652344 5.652344 10.480469 C 6.265625 10.332031 6.09375 9.824219 6.070312 9.421875 C 6.054688 9.214844 5.863281 9.019531 5.753906 8.816406 C 5.71875 8.832031 5.683594 8.847656 5.648438 8.863281 C 5.648438 8.71875 5.648438 8.570312 5.648438 8.402344 C 6.007812 8.332031 6.09375 8.089844 6.089844 7.753906 C 6.078125 6.675781 6.082031 5.601562 6.085938 4.523438 C 6.089844 2.660156 7.402344 1.339844 9.253906 1.335938 C 14.089844 1.332031 18.925781 1.335938 23.761719 1.335938 C 23.847656 1.335938 23.929688 1.335938 24.046875 1.335938 C 24.046875 2.65625 24.023438 3.953125 24.058594 5.246094 C 24.074219 5.765625 24.152344 6.3125 24.324219 6.800781 C 24.859375 8.308594 26.300781 9.320312 27.902344 9.34375 C 29.273438 9.363281 30.644531 9.347656 32.042969 9.347656 C 32.050781 9.46875 32.0625 9.574219 32.0625 9.679688 C 32.0625 17.660156 32.0625 25.636719 32.0625 33.617188 C 32.0625 35.5 30.75 36.808594 28.867188 36.8125 C 26.664062 36.816406 24.464844 36.808594 22.222656 36.78125 C 22.101562 36.679688 22.023438 36.597656 21.933594 36.539062 C 20.820312 35.820312 19.699219 35.113281 18.597656 34.378906 C 18.28125 34.167969 18.023438 33.875 17.773438 33.613281 C 21.574219 33.605469 25.34375 33.605469 29.109375 33.601562 C 29.257812 33.601562 29.441406 33.628906 29.542969 33.554688 C 29.679688 33.453125 29.839844 33.257812 29.828125 33.117188 C 29.820312 32.976562 29.625 32.824219 29.476562 32.726562 C 29.390625 32.671875 29.238281 32.710938 29.113281 32.710938 C 25.011719 32.710938 20.910156 32.710938 16.808594 32.710938 C 16.648438 32.710938 16.488281 32.699219 16.324219 32.667969 C 16.183594 32.503906 16.050781 32.363281 15.910156 32.226562 C 15.058594 31.40625 14.210938 30.585938 13.371094 29.738281 C 13.570312 29.269531 13.417969 29.015625 12.941406 29 C 12.808594 28.996094 12.675781 28.988281 12.539062 28.957031 C 12.175781 28.488281 11.804688 28.050781 11.457031 27.59375 C 11.113281 27.140625 10.792969 26.664062 10.5 26.191406 C 11.332031 26.183594 12.136719 26.199219 12.933594 26.167969 C 13.109375 26.160156 13.3125 26.019531 13.425781 25.875 C 13.492188 25.796875 13.445312 25.542969 13.359375 25.453125 C 13.257812 25.347656 13.058594 25.296875 12.898438 25.296875 C 11.816406 25.277344 10.734375 25.277344 9.648438 25.246094 C 9.625 25.164062 9.609375 25.105469 9.578125 25.054688 C 8.359375 23.195312 7.25 21.273438 6.378906 19.226562 C 6.3125 19.066406 6.195312 18.925781 6.101562 18.777344 M 9.855469 16.296875 C 10.066406 17.394531 10.722656 18.15625 11.792969 18.703125 C 11.285156 18.703125 10.890625 18.691406 10.5 18.707031 C 10.265625 18.714844 10.027344 18.738281 9.804688 18.804688 C 8.851562 19.089844 8.199219 20.105469 8.332031 21.066406 C 8.480469 22.128906 9.304688 22.925781 10.347656 22.9375 C 12.140625 22.957031 13.933594 22.945312 15.726562 22.941406 C 15.859375 22.941406 15.996094 22.917969 16.125 22.882812 C 17.183594 22.613281 17.847656 21.65625 17.730469 20.578125 C 17.617188 19.53125 16.71875 18.722656 15.636719 18.703125 C 15.214844 18.699219 14.792969 18.703125 14.277344 18.703125 C 16.359375 17.621094 16.5625 15.644531 16.003906 14.378906 C 15.347656 12.894531 13.691406 12.117188 12.132812 12.5625 C 10.550781 13.015625 9.578125 14.570312 9.855469 16.296875 M 20.59375 29.894531 C 23.4375 29.894531 26.28125 29.894531 29.125 29.890625 C 29.257812 29.890625 29.398438 29.890625 29.527344 29.859375 C 29.765625 29.804688 29.910156 29.621094 29.835938 29.394531 C 29.785156 29.242188 29.613281 29.113281 29.464844 29.015625 C 29.386719 28.960938 29.246094 29 29.136719 29 C 24.871094 29 20.609375 29 16.34375 29 C 16.222656 29 16.070312 28.964844 15.980469 29.019531 C 15.84375 29.113281 15.667969 29.261719 15.65625 29.398438 C 15.644531 29.539062 15.777344 29.730469 15.902344 29.828125 C 16.003906 29.90625 16.1875 29.890625 16.332031 29.890625 C 17.726562 29.894531 19.125 29.894531 20.59375 29.894531 M 24.828125 25.289062 C 21.972656 25.289062 19.117188 25.289062 16.261719 25.289062 C 15.820312 25.289062 15.628906 25.425781 15.628906 25.730469 C 15.632812 26.027344 15.84375 26.175781 16.265625 26.183594 C 16.292969 26.183594 16.316406 26.183594 16.339844 26.183594 C 20.605469 26.183594 24.871094 26.183594 29.132812 26.179688 C 29.28125 26.179688 29.464844 26.203125 29.5625 26.125 C 29.695312 26.019531 29.832031 25.824219 29.828125 25.671875 C 29.824219 25.542969 29.628906 25.398438 29.492188 25.308594 C 29.414062 25.253906 29.277344 25.289062 29.164062 25.289062 C 27.742188 25.289062 26.320312 25.289062 24.828125 25.289062 M 14.761719 5.21875 C 15.003906 5.085938 15.238281 4.894531 15.5 4.828125 C 16.140625 4.671875 16.613281 4.992188 17 5.476562 C 17.183594 5.707031 17.414062 5.761719 17.648438 5.578125 C 17.882812 5.390625 17.859375 5.160156 17.695312 4.921875 C 16.855469 3.71875 15.234375 3.550781 14.175781 4.554688 C 12.90625 5.757812 12.84375 8.046875 14.042969 9.328125 C 15.070312 10.425781 16.648438 10.375 17.601562 9.214844 C 17.867188 8.890625 17.882812 8.625 17.652344 8.4375 C 17.421875 8.253906 17.207031 8.308594 16.933594 8.621094 C 16.179688 9.488281 15.109375 9.417969 14.480469 8.457031 C 13.851562 7.507812 13.957031 6.140625 14.761719 5.21875 M 20.199219 8.105469 C 19.742188 6.84375 19.289062 5.582031 18.828125 4.320312 C 18.691406 3.945312 18.480469 3.8125 18.207031 3.914062 C 17.929688 4.019531 17.851562 4.257812 17.988281 4.625 C 18.59375 6.289062 19.203125 7.953125 19.808594 9.621094 C 19.910156 9.902344 20.058594 10.105469 20.378906 10.113281 C 20.722656 10.121094 20.878906 9.902344 20.984375 9.613281 C 21.585938 7.945312 22.191406 6.277344 22.800781 4.613281 C 22.90625 4.320312 22.90625 4.070312 22.585938 3.929688 C 22.3125 3.808594 22.097656 3.945312 21.960938 4.324219 C 21.585938 5.339844 21.21875 6.359375 20.847656 7.378906 C 20.703125 7.765625 20.558594 8.152344 20.390625 8.597656 C 20.316406 8.40625 20.269531 8.28125 20.199219 8.105469 M 20.449219 21.578125 C 20.214844 21.578125 19.964844 21.53125 19.75 21.597656 C 19.585938 21.648438 19.367188 21.835938 19.355469 21.980469 C 19.34375 22.125 19.535156 22.3125 19.675781 22.433594 C 19.753906 22.5 19.914062 22.46875 20.035156 22.46875 C 23.078125 22.472656 26.121094 22.472656 29.164062 22.46875 C 29.300781 22.46875 29.472656 22.492188 29.558594 22.417969 C 29.6875 22.304688 29.832031 22.117188 29.828125 21.964844 C 29.824219 21.835938 29.636719 21.6875 29.496094 21.597656 C 29.40625 21.542969 29.253906 21.578125 29.132812 21.578125 C 26.261719 21.578125 23.390625 21.578125 20.449219 21.578125 M 27.199219 17.867188 C 24.78125 17.867188 22.359375 17.867188 19.9375 17.867188 C 19.535156 17.867188 19.332031 18.011719 19.324219 18.292969 C 19.316406 18.585938 19.542969 18.753906 19.953125 18.761719 C 19.988281 18.761719 20.027344 18.761719 20.0625 18.761719 C 22.695312 18.761719 25.324219 18.761719 27.957031 18.757812 C 28.066406 18.757812 28.179688 18.765625 28.289062 18.75 C 28.539062 18.707031 28.703125 18.550781 28.695312 18.296875 C 28.683594 18.03125 28.523438 17.871094 28.238281 17.867188 C 27.917969 17.867188 27.597656 17.867188 27.199219 17.867188 M 23.878906 14.855469 C 24.03125 14.457031 23.902344 14.167969 23.53125 14.164062 C 22.269531 14.148438 21.011719 14.15625 19.75 14.160156 C 19.464844 14.164062 19.3125 14.355469 19.332031 14.621094 C 19.359375 14.957031 19.609375 15.050781 19.914062 15.050781 C 21.0625 15.046875 22.210938 15.054688 23.359375 15.042969 C 23.519531 15.039062 23.679688 14.949219 23.878906 14.855469 Z M 23.878906 14.855469 "/>
<path style=" stroke:none;fill-rule:nonzero;fill:rgb(88.627451%,88.235294%,90.196078%);fill-opacity:1;" d="M 10.464844 26.199219 C 10.792969 26.664062 11.113281 27.140625 11.457031 27.59375 C 11.804688 28.050781 12.175781 28.488281 12.507812 28.964844 C 12.230469 29 11.980469 29 11.734375 29 C 10.757812 29 9.78125 28.996094 8.804688 29.003906 C 8.382812 29.003906 8.132812 29.363281 8.359375 29.652344 C 8.46875 29.789062 8.714844 29.878906 8.902344 29.882812 C 10.222656 29.902344 11.546875 29.898438 12.867188 29.886719 C 13.03125 29.886719 13.195312 29.808594 13.359375 29.765625 C 14.210938 30.585938 15.058594 31.40625 15.910156 32.226562 C 16.050781 32.363281 16.183594 32.503906 16.292969 32.675781 C 15.816406 32.722656 15.632812 32.847656 15.628906 33.144531 C 15.628906 33.453125 15.84375 33.601562 16.296875 33.605469 C 16.777344 33.609375 17.257812 33.613281 17.738281 33.617188 C 18.023438 33.875 18.28125 34.167969 18.597656 34.378906 C 19.699219 35.113281 20.820312 35.820312 21.933594 36.539062 C 22.023438 36.597656 22.101562 36.679688 22.1875 36.773438 C 22.070312 36.804688 21.945312 36.8125 21.824219 36.8125 C 17.679688 36.8125 13.535156 36.8125 9.390625 36.8125 C 7.359375 36.8125 6.085938 35.535156 6.085938 33.503906 C 6.085938 28.617188 6.085938 23.730469 6.09375 18.808594 C 6.195312 18.925781 6.3125 19.066406 6.378906 19.226562 C 7.25 21.273438 8.359375 23.195312 9.578125 25.054688 C 9.609375 25.105469 9.625 25.164062 9.617188 25.253906 C 9.347656 25.289062 9.117188 25.285156 8.882812 25.289062 C 8.480469 25.292969 8.292969 25.433594 8.292969 25.730469 C 8.292969 26.023438 8.488281 26.175781 8.882812 26.179688 C 9.410156 26.191406 9.9375 26.191406 10.464844 26.199219 M 8.382812 33.421875 C 8.539062 33.484375 8.691406 33.59375 8.847656 33.597656 C 10.203125 33.609375 11.5625 33.605469 12.917969 33.601562 C 13.269531 33.601562 13.480469 33.417969 13.480469 33.148438 C 13.480469 32.875 13.277344 32.710938 12.914062 32.710938 C 11.554688 32.710938 10.199219 32.707031 8.84375 32.710938 C 8.371094 32.714844 8.242188 32.898438 8.382812 33.421875 Z M 8.382812 33.421875 "/>
<path style=" stroke:none;fill-rule:nonzero;fill:rgb(29.803922%,29.803922%,29.803922%);fill-opacity:1;" d="M 25.878906 7.59375 C 25.234375 6.949219 24.929688 6.195312 24.9375 5.3125 C 24.941406 4.210938 24.9375 3.113281 24.9375 2.105469 C 27.042969 4.207031 29.183594 6.351562 31.296875 8.460938 C 30.417969 8.460938 29.433594 8.464844 28.453125 8.457031 C 28.121094 8.457031 27.785156 8.441406 27.460938 8.398438 C 26.851562 8.316406 26.339844 8.03125 25.878906 7.59375 Z M 25.878906 7.59375 "/>
<path style=" stroke:none;fill-rule:nonzero;fill:rgb(1.176471%,1.176471%,1.176471%);fill-opacity:1;" d="M 9.84375 16.265625 C 9.578125 14.570312 10.550781 13.015625 12.132812 12.5625 C 13.691406 12.117188 15.347656 12.894531 16.003906 14.378906 C 16.5625 15.644531 16.359375 17.621094 14.277344 18.703125 C 14.792969 18.703125 15.214844 18.699219 15.636719 18.703125 C 16.71875 18.722656 17.617188 19.53125 17.730469 20.578125 C 17.847656 21.65625 17.183594 22.613281 16.125 22.882812 C 15.996094 22.917969 15.859375 22.941406 15.726562 22.941406 C 13.933594 22.945312 12.140625 22.957031 10.347656 22.9375 C 9.304688 22.925781 8.480469 22.128906 8.332031 21.066406 C 8.199219 20.105469 8.851562 19.089844 9.804688 18.804688 C 10.027344 18.738281 10.265625 18.714844 10.5 18.707031 C 10.890625 18.691406 11.285156 18.703125 11.792969 18.703125 C 10.722656 18.15625 10.066406 17.394531 9.84375 16.265625 M 16.472656 19.929688 C 16.15625 19.816406 15.839844 19.617188 15.519531 19.609375 C 13.863281 19.578125 12.207031 19.59375 10.550781 19.59375 C 9.769531 19.597656 9.203125 20.113281 9.203125 20.820312 C 9.203125 21.542969 9.746094 22.046875 10.539062 22.046875 C 12.195312 22.050781 13.851562 22.042969 15.507812 22.054688 C 16.050781 22.054688 16.480469 21.871094 16.726562 21.378906 C 16.976562 20.871094 16.875 20.394531 16.472656 19.929688 M 11.394531 17.367188 C 12.398438 18.289062 13.820312 18.257812 14.746094 17.285156 C 15.597656 16.390625 15.578125 14.914062 14.710938 14.027344 C 13.832031 13.132812 12.320312 13.109375 11.429688 13.976562 C 10.457031 14.921875 10.425781 16.328125 11.394531 17.367188 Z M 11.394531 17.367188 "/>
<path style=" stroke:none;fill-rule:nonzero;fill:rgb(2.745098%,2.745098%,2.745098%);fill-opacity:1;" d="M 17.773438 33.613281 C 17.257812 33.613281 16.777344 33.609375 16.296875 33.605469 C 15.84375 33.601562 15.628906 33.453125 15.628906 33.144531 C 15.632812 32.847656 15.816406 32.722656 16.296875 32.699219 C 16.488281 32.699219 16.648438 32.710938 16.808594 32.710938 C 20.910156 32.710938 25.011719 32.710938 29.113281 32.710938 C 29.238281 32.710938 29.390625 32.671875 29.476562 32.726562 C 29.625 32.824219 29.820312 32.976562 29.828125 33.117188 C 29.839844 33.257812 29.679688 33.453125 29.542969 33.554688 C 29.441406 33.628906 29.257812 33.601562 29.109375 33.601562 C 25.34375 33.605469 21.574219 33.605469 17.773438 33.613281 Z M 17.773438 33.613281 "/>
<path style=" stroke:none;fill-rule:nonzero;fill:rgb(2.745098%,2.745098%,2.745098%);fill-opacity:1;" d="M 20.558594 29.894531 C 19.125 29.894531 17.726562 29.894531 16.332031 29.890625 C 16.1875 29.890625 16.003906 29.90625 15.902344 29.828125 C 15.777344 29.730469 15.644531 29.539062 15.65625 29.398438 C 15.667969 29.261719 15.84375 29.113281 15.980469 29.019531 C 16.070312 28.964844 16.222656 29 16.34375 29 C 20.609375 29 24.871094 29 29.136719 29 C 29.246094 29 29.386719 28.960938 29.464844 29.015625 C 29.613281 29.113281 29.785156 29.242188 29.835938 29.394531 C 29.910156 29.621094 29.765625 29.804688 29.527344 29.859375 C 29.398438 29.890625 29.257812 29.890625 29.125 29.890625 C 26.28125 29.894531 23.4375 29.894531 20.558594 29.894531 Z M 20.558594 29.894531 "/>
<path style=" stroke:none;fill-rule:nonzero;fill:rgb(2.745098%,2.745098%,2.745098%);fill-opacity:1;" d="M 24.863281 25.289062 C 26.320312 25.289062 27.742188 25.289062 29.164062 25.289062 C 29.277344 25.289062 29.414062 25.253906 29.492188 25.308594 C 29.628906 25.398438 29.824219 25.542969 29.828125 25.671875 C 29.832031 25.824219 29.695312 26.019531 29.5625 26.125 C 29.464844 26.203125 29.28125 26.179688 29.132812 26.179688 C 24.871094 26.183594 20.605469 26.183594 16.339844 26.183594 C 16.316406 26.183594 16.292969 26.183594 16.265625 26.183594 C 15.84375 26.175781 15.632812 26.027344 15.628906 25.730469 C 15.628906 25.425781 15.820312 25.289062 16.261719 25.289062 C 19.117188 25.289062 21.972656 25.289062 24.863281 25.289062 Z M 24.863281 25.289062 "/>
<path style=" stroke:none;fill-rule:nonzero;fill:rgb(1.960784%,1.960784%,1.960784%);fill-opacity:1;" d="M 14.742188 5.238281 C 13.957031 6.140625 13.851562 7.507812 14.480469 8.457031 C 15.109375 9.417969 16.179688 9.488281 16.933594 8.621094 C 17.207031 8.308594 17.421875 8.253906 17.652344 8.4375 C 17.882812 8.625 17.867188 8.890625 17.601562 9.214844 C 16.648438 10.375 15.070312 10.425781 14.042969 9.328125 C 12.84375 8.046875 12.90625 5.757812 14.175781 4.554688 C 15.234375 3.550781 16.855469 3.71875 17.695312 4.921875 C 17.859375 5.160156 17.882812 5.390625 17.648438 5.578125 C 17.414062 5.761719 17.183594 5.707031 17 5.476562 C 16.613281 4.992188 16.140625 4.671875 15.5 4.828125 C 15.238281 4.894531 15.003906 5.085938 14.742188 5.238281 Z M 14.742188 5.238281 "/>
<path style=" stroke:none;fill-rule:nonzero;fill:rgb(1.960784%,1.960784%,2.352941%);fill-opacity:1;" d="M 20.210938 8.132812 C 20.269531 8.28125 20.316406 8.40625 20.390625 8.597656 C 20.558594 8.152344 20.703125 7.765625 20.847656 7.378906 C 21.21875 6.359375 21.585938 5.339844 21.960938 4.324219 C 22.097656 3.945312 22.3125 3.808594 22.585938 3.929688 C 22.90625 4.070312 22.90625 4.320312 22.800781 4.613281 C 22.191406 6.277344 21.585938 7.945312 20.984375 9.613281 C 20.878906 9.902344 20.722656 10.121094 20.378906 10.113281 C 20.058594 10.105469 19.910156 9.902344 19.808594 9.621094 C 19.203125 7.953125 18.59375 6.289062 17.988281 4.625 C 17.851562 4.257812 17.929688 4.019531 18.207031 3.914062 C 18.480469 3.8125 18.691406 3.945312 18.828125 4.320312 C 19.289062 5.582031 19.742188 6.84375 20.210938 8.132812 Z M 20.210938 8.132812 "/>
<path style=" stroke:none;fill-rule:nonzero;fill:rgb(2.745098%,2.745098%,2.745098%);fill-opacity:1;" d="M 20.484375 21.578125 C 23.390625 21.578125 26.261719 21.578125 29.132812 21.578125 C 29.253906 21.578125 29.40625 21.542969 29.496094 21.597656 C 29.636719 21.6875 29.824219 21.835938 29.828125 21.964844 C 29.832031 22.117188 29.6875 22.304688 29.558594 22.417969 C 29.472656 22.492188 29.300781 22.46875 29.164062 22.46875 C 26.121094 22.472656 23.078125 22.472656 20.035156 22.46875 C 19.914062 22.46875 19.753906 22.5 19.675781 22.433594 C 19.535156 22.3125 19.34375 22.125 19.355469 21.980469 C 19.367188 21.835938 19.585938 21.648438 19.75 21.597656 C 19.964844 21.53125 20.214844 21.578125 20.484375 21.578125 Z M 20.484375 21.578125 "/>
<path style=" stroke:none;fill-rule:nonzero;fill:rgb(2.745098%,2.745098%,2.745098%);fill-opacity:1;" d="M 27.238281 17.867188 C 27.597656 17.867188 27.917969 17.867188 28.238281 17.867188 C 28.523438 17.871094 28.683594 18.03125 28.695312 18.296875 C 28.703125 18.550781 28.539062 18.707031 28.289062 18.75 C 28.179688 18.765625 28.066406 18.757812 27.957031 18.757812 C 25.324219 18.761719 22.695312 18.761719 20.0625 18.761719 C 20.027344 18.761719 19.988281 18.761719 19.953125 18.761719 C 19.542969 18.753906 19.316406 18.585938 19.324219 18.292969 C 19.332031 18.011719 19.535156 17.867188 19.9375 17.867188 C 22.359375 17.867188 24.78125 17.867188 27.238281 17.867188 Z M 27.238281 17.867188 "/>
<path style=" stroke:none;fill-rule:nonzero;fill:rgb(2.745098%,2.745098%,2.745098%);fill-opacity:1;" d="M 10.5 26.191406 C 9.9375 26.191406 9.410156 26.191406 8.882812 26.179688 C 8.488281 26.175781 8.292969 26.023438 8.292969 25.730469 C 8.292969 25.433594 8.480469 25.292969 8.882812 25.289062 C 9.117188 25.285156 9.347656 25.289062 9.617188 25.277344 C 10.734375 25.277344 11.816406 25.277344 12.898438 25.296875 C 13.058594 25.296875 13.257812 25.347656 13.359375 25.453125 C 13.445312 25.542969 13.492188 25.796875 13.425781 25.875 C 13.3125 26.019531 13.109375 26.160156 12.933594 26.167969 C 12.136719 26.199219 11.332031 26.183594 10.5 26.191406 Z M 10.5 26.191406 "/>
<path style=" stroke:none;fill-rule:nonzero;fill:rgb(2.745098%,2.745098%,2.745098%);fill-opacity:1;" d="M 13.371094 29.738281 C 13.195312 29.808594 13.03125 29.886719 12.867188 29.886719 C 11.546875 29.898438 10.222656 29.902344 8.902344 29.882812 C 8.714844 29.878906 8.46875 29.789062 8.359375 29.652344 C 8.132812 29.363281 8.382812 29.003906 8.804688 29.003906 C 9.78125 28.996094 10.757812 29 11.734375 29 C 11.980469 29 12.230469 29 12.511719 28.988281 C 12.675781 28.988281 12.808594 28.996094 12.941406 29 C 13.417969 29.015625 13.570312 29.269531 13.371094 29.738281 Z M 13.371094 29.738281 "/>
<path style=" stroke:none;fill-rule:nonzero;fill:rgb(2.745098%,2.745098%,3.137255%);fill-opacity:1;" d="M 23.859375 14.875 C 23.679688 14.949219 23.519531 15.039062 23.359375 15.042969 C 22.210938 15.054688 21.0625 15.046875 19.914062 15.050781 C 19.609375 15.050781 19.359375 14.957031 19.332031 14.621094 C 19.3125 14.355469 19.464844 14.164062 19.75 14.160156 C 21.011719 14.15625 22.269531 14.148438 23.53125 14.164062 C 23.902344 14.167969 24.03125 14.457031 23.859375 14.875 Z M 23.859375 14.875 "/>
<path style=" stroke:none;fill-rule:nonzero;fill:rgb(2.745098%,2.745098%,2.745098%);fill-opacity:1;" d="M 8.363281 33.398438 C 8.242188 32.898438 8.371094 32.714844 8.84375 32.710938 C 10.199219 32.707031 11.554688 32.710938 12.914062 32.710938 C 13.277344 32.710938 13.480469 32.875 13.480469 33.148438 C 13.480469 33.417969 13.269531 33.601562 12.917969 33.601562 C 11.5625 33.605469 10.203125 33.609375 8.847656 33.597656 C 8.691406 33.59375 8.539062 33.484375 8.363281 33.398438 Z M 8.363281 33.398438 "/>
<path style=" stroke:none;fill-rule:nonzero;fill:rgb(30.196078%,30.196078%,30.196078%);fill-opacity:1;" d="M 16.492188 19.949219 C 16.875 20.394531 16.976562 20.871094 16.726562 21.378906 C 16.480469 21.871094 16.050781 22.054688 15.507812 22.054688 C 13.851562 22.042969 12.195312 22.050781 10.539062 22.046875 C 9.746094 22.046875 9.203125 21.542969 9.203125 20.820312 C 9.203125 20.113281 9.769531 19.597656 10.550781 19.59375 C 12.207031 19.59375 13.863281 19.578125 15.519531 19.609375 C 15.839844 19.617188 16.15625 19.816406 16.492188 19.949219 Z M 16.492188 19.949219 "/>
<path style=" stroke:none;fill-rule:nonzero;fill:rgb(29.803922%,29.803922%,29.803922%);fill-opacity:1;" d="M 11.375 17.347656 C 10.425781 16.328125 10.457031 14.921875 11.429688 13.976562 C 12.320312 13.109375 13.832031 13.132812 14.710938 14.027344 C 15.578125 14.914062 15.597656 16.390625 14.746094 17.285156 C 13.820312 18.257812 12.398438 18.289062 11.375 17.347656 Z M 11.375 17.347656 "/>
</g>
</svg>
